<?xml version="1.0" standalone="no"?>
<!DOCTYPE svg PUBLIC "-//W3C//DTD SVG 20010904//EN"
 "http://www.w3.org/TR/2001/REC-SVG-20010904/DTD/svg10.dtd">
<svg version="1.0" xmlns="http://www.w3.org/2000/svg"
 width="5980.000000pt" height="5845.000000pt" viewBox="0 0 5980.000000 5845.000000"
 preserveAspectRatio="xMidYMid meet">

<g transform="translate(0.000000,5845.000000) scale(0.100000,-0.100000)"
fill="#fff" stroke="none">
<path d="M30086 52759 c-11 -1009 -26 -3142 -22 -3146 2 -2 143 126 312 285
l309 289 5 -3822 5 -3821 308 323 307 324 1 1512 c1 832 5 1982 8 2556 l6
1044 825 -819 c454 -450 1379 -1367 2055 -2038 677 -671 1377 -1366 1558
-1545 l327 -326 0 1852 0 1851 -1692 1699 c-931 934 -2281 2287 -2999 3007
l-1307 1310 -6 -535z"/>
<path d="M31554 40126 c-250 -303 -3810 -4596 -4694 -5661 -278 -335 -564
-680 -634 -765 l-128 -155 138 -6 c77 -4 1134 -7 2350 -8 l2211 -1 6 257 c4
141 7 315 7 387 l0 131 -512 -2 c-1301 -7 -2658 -7 -2656 -2 2 4 158 181 348
395 462 519 1717 1933 2490 2805 344 387 640 720 658 739 l34 35 -7 -6715 c-3
-3693 -4 -6712 -2 -6710 3 3 193 410 422 905 229 495 499 1078 600 1295 101
217 272 586 380 820 108 234 225 486 260 560 34 74 160 347 280 605 120 259
291 628 380 820 89 193 231 499 315 680 84 182 268 580 410 885 142 305 353
762 470 1015 117 253 358 773 535 1155 l323 695 -452 7 c-248 3 -1019 8 -1714
10 l-1262 3 0 -386 0 -386 1107 -6 c608 -4 1108 -9 1111 -11 2 -3 -21 -62 -51
-133 -30 -70 -162 -375 -292 -678 -130 -302 -306 -710 -390 -905 -141 -327
-542 -1258 -842 -1955 -69 -159 -194 -450 -278 -645 -84 -195 -208 -483 -276
-640 -67 -157 -185 -429 -260 -605 l-138 -320 -3 6391 -3 6391 -241 -291z"/>
<path d="M41275 37098 c281 -282 798 -803 1150 -1158 1318 -1328 1867 -1882
2462 -2480 l612 -615 -427 -6 c-235 -3 -1385 -7 -2557 -8 l-2130 -2 -323 -307
-322 -307 3821 -5 3822 -5 -290 -310 c-160 -170 -289 -311 -288 -313 4 -4
2793 16 3292 24 l392 6 -1732 1726 c-953 949 -2306 2299 -3007 2999 l-1275
1273 -1855 0 -1855 0 510 -512z"/>
<path d="M12115 31570 c-440 -4 -1178 -11 -1640 -15 -462 -4 -841 -8 -842 -9
-3 -2 1927 -1929 4260 -4254 l1748 -1742 1712 0 c942 0 1776 -1 1854 -3 l143
-2 -303 305 c-167 168 -588 593 -937 945 -1062 1071 -1895 1909 -2531 2550
-333 336 -685 691 -782 790 l-176 180 1197 6 c658 3 1809 7 2557 8 l1360 2
322 307 322 307 -3822 5 -3821 5 285 304 c156 167 286 307 287 312 2 5 -85 8
-195 7 -109 -1 -558 -5 -998 -8z"/>
<path d="M29119 20293 l-306 -322 -6 -1817 c-4 -1000 -7 -2153 -7 -2563 l0
-746 -522 521 c-288 286 -1081 1073 -1763 1749 -1752 1736 -2458 2438 -2468
2453 -4 6 -12 12 -18 12 -6 0 -9 -630 -7 -1849 l3 -1848 2270 -2277 c1249
-1253 2599 -2609 3001 -3014 l731 -737 7 745 c14 1627 24 2945 22 2948 -2 1
-142 -128 -312 -286 l-309 -289 -5 3821 -5 3821 -306 -322z"/>
<path d="M17030 6631 c-99 -20 -191 -103 -250 -226 -64 -133 -75 -187 -75
-380 0 -148 3 -180 23 -250 66 -226 193 -355 352 -355 84 0 135 24 204 93 62
61 124 181 152 292 25 99 26 321 1 430 -23 101 -83 225 -142 292 -70 80 -175
121 -265 104z"/>
<path d="M30461 6629 c-135 -26 -254 -177 -307 -389 -25 -100 -25 -333 -1
-434 41 -163 138 -310 239 -360 70 -35 162 -36 233 -2 103 48 195 181 241 346
27 94 27 366 0 465 -67 255 -232 407 -405 374z"/>
<path d="M12980 6180 l0 -320 108 0 c187 -1 230 -29 251 -160 7 -43 11 -537
11 -1475 0 -1487 -1 -1506 -45 -1555 -29 -32 -108 -50 -222 -50 l-103 0 0
-321 0 -320 903 4 c870 4 906 4 1012 25 351 68 624 215 823 444 247 283 390
666 459 1223 20 165 29 766 14 966 -74 982 -409 1555 -1033 1764 -271 90 -326
94 -1330 95 l-848 0 0 -320z m1626 -341 c252 -46 399 -308 458 -819 49 -423
49 -1158 0 -1560 -44 -361 -117 -565 -248 -696 -102 -102 -143 -116 -353 -122
l-163 -4 0 1606 0 1606 123 0 c68 0 150 -5 183 -11z"/>
<path d="M10937 4981 l-637 -1100 0 -365 0 -366 636 0 637 0 -5 -197 c-6 -233
-20 -292 -77 -330 -50 -34 -93 -43 -233 -50 l-128 -6 0 -294 0 -293 825 0 825
0 0 295 0 295 -77 0 c-186 1 -265 28 -303 105 -24 48 -25 60 -28 262 l-4 213
203 2 204 3 3 283 2 282 -205 0 -205 0 0 1180 0 1180 -398 0 -399 0 -636
-1099z m638 -638 l-7 -623 -404 0 c-222 0 -404 2 -404 5 0 2 149 264 331 582
182 318 366 639 408 713 l76 134 3 -94 c2 -52 0 -375 -3 -717z"/>
<path d="M19625 5261 c-131 -36 -211 -82 -318 -180 -62 -58 -163 -181 -216
-265 l-31 -50 0 197 0 197 -545 0 -545 0 0 -294 0 -293 80 -6 c96 -6 137 -27
165 -82 20 -39 20 -60 20 -915 0 -855 0 -876 -20 -915 -28 -55 -69 -76 -165
-82 l-80 -6 0 -293 0 -294 650 0 650 0 0 294 0 293 -50 7 c-58 8 -102 46 -122
104 -17 50 -24 1255 -8 1426 21 234 65 368 143 430 35 28 45 31 110 31 59 0
78 -4 105 -23 44 -32 77 -101 99 -208 16 -81 18 -155 18 -849 0 -700 -1 -765
-18 -817 -20 -67 -45 -88 -112 -96 l-45 -5 0 -293 0 -294 595 0 595 0 0 294 0
293 -52 6 c-68 8 -102 43 -118 120 -8 40 -10 258 -7 764 3 623 5 719 21 796
44 228 123 325 256 315 72 -5 111 -32 145 -102 52 -107 56 -163 62 -886 5
-699 -1 -860 -34 -927 -18 -38 -61 -67 -115 -78 l-28 -5 0 -295 0 -295 630 0
630 0 0 294 0 293 -65 6 c-80 8 -131 31 -150 67 -31 60 -35 159 -35 896 0 761
-6 924 -40 1121 -40 227 -97 360 -196 460 -165 165 -482 213 -717 109 -119
-52 -255 -164 -358 -293 l-58 -73 -48 92 c-53 101 -150 214 -217 253 -83 48
-154 67 -276 71 -92 3 -129 0 -185 -15z"/>
<path d="M23120 5273 c-216 -34 -394 -127 -545 -284 -220 -231 -356 -549 -422
-984 -25 -166 -25 -717 0 -878 69 -446 204 -762 420 -980 133 -134 279 -218
457 -263 102 -26 370 -27 482 -2 290 65 486 226 633 518 72 144 145 404 173
618 l9 62 -261 0 -262 0 -12 -81 c-37 -233 -135 -417 -255 -477 -99 -49 -225
-44 -307 13 -152 105 -240 375 -240 735 l0 110 665 0 665 0 0 128 c-1 1016
-309 1638 -865 1753 -83 17 -262 24 -335 12z m265 -612 c134 -61 215 -284 215
-593 l0 -98 -306 0 -307 0 6 133 c16 368 125 578 301 577 28 0 69 -9 91 -19z"/>
<path d="M28203 5265 c-343 -62 -575 -271 -693 -623 -46 -139 -63 -287 -57
-487 8 -224 36 -343 113 -484 96 -173 385 -381 801 -577 262 -123 364 -237
350 -389 -9 -99 -47 -158 -127 -201 -54 -29 -254 -26 -332 5 -170 67 -297 232
-364 473 -14 51 -27 99 -29 106 -3 9 -50 12 -190 12 l-185 0 0 -585 0 -585
148 0 149 0 12 42 c7 24 24 80 38 124 l25 82 83 -67 c142 -114 314 -191 503
-227 112 -21 386 -15 476 10 243 68 416 206 535 428 107 198 156 487 131 771
-14 165 -48 299 -106 417 -39 79 -61 109 -133 181 -117 116 -228 186 -546 344
-290 145 -364 193 -420 278 -63 96 -68 191 -14 285 50 88 172 127 315 103 113
-20 187 -62 285 -160 74 -75 93 -101 143 -203 l59 -118 163 0 164 0 0 500 0
500 -158 0 -158 0 -28 -94 -28 -94 -77 50 c-154 100 -318 164 -485 187 -102
14 -273 12 -363 -4z"/>
<path d="M32430 5265 c-224 -38 -412 -137 -566 -297 -229 -238 -360 -546 -421
-988 -24 -176 -24 -644 0 -820 62 -444 195 -757 421 -985 156 -157 328 -248
550 -290 103 -20 324 -20 433 -1 539 96 898 585 985 1341 16 142 16 548 0 690
-53 462 -203 819 -441 1056 -170 169 -333 253 -569 294 -101 18 -288 18 -392
0z m322 -651 c49 -34 108 -139 133 -239 79 -313 79 -1320 0 -1625 -32 -125
-100 -224 -174 -251 -40 -16 -126 -12 -165 6 -110 52 -167 187 -203 478 -15
117 -18 222 -18 587 0 365 3 470 18 587 29 235 64 347 133 423 52 58 85 71
166 67 56 -2 74 -8 110 -33z"/>
<path d="M37703 5265 c-85 -15 -190 -48 -247 -77 -247 -126 -415 -364 -482
-683 -29 -136 -27 -476 3 -595 32 -125 58 -191 112 -272 109 -166 300 -303
719 -514 275 -139 340 -188 389 -293 22 -46 25 -63 20 -121 -10 -118 -70 -197
-170 -221 -71 -17 -218 -7 -289 20 -169 65 -297 231 -364 473 -14 51 -27 99
-29 106 -3 9 -50 12 -190 12 l-185 0 0 -585 0 -585 148 0 148 0 17 52 c8 29
25 86 37 125 l22 73 51 -44 c217 -183 452 -266 751 -266 221 0 380 43 523 141
201 138 344 380 387 659 50 319 17 622 -90 840 -39 79 -61 109 -133 181 -117
116 -228 186 -546 345 -290 144 -364 193 -420 277 -63 96 -68 191 -14 285 50
88 172 127 315 103 185 -33 339 -170 446 -397 l39 -84 164 0 165 0 0 500 0
500 -158 0 -158 0 -28 -94 -28 -94 -77 50 c-154 100 -318 164 -485 187 -102
14 -273 12 -363 -4z"/>
<path d="M26222 5236 c-221 -42 -423 -215 -572 -488 l-40 -73 0 243 0 242
-560 0 -560 0 0 -294 0 -293 94 -5 c112 -6 151 -24 181 -83 20 -39 20 -60 20
-915 0 -855 0 -876 -20 -915 -30 -59 -69 -77 -181 -83 l-94 -5 0 -293 0 -294
680 0 680 0 0 294 0 293 -54 6 c-67 7 -111 29 -130 65 -35 67 -37 135 -33 832
3 611 5 693 21 760 40 171 111 286 202 330 37 19 57 22 106 17 143 -13 222
-134 248 -377 12 -122 13 -1338 0 -1448 -5 -45 -15 -95 -22 -109 -19 -39 -69
-64 -138 -70 l-60 -6 0 -293 0 -294 670 0 670 0 0 295 0 295 -50 0 c-123 0
-185 34 -211 115 -9 30 -14 248 -19 895 -8 923 -9 942 -65 1168 -66 262 -204
417 -421 472 -104 27 -249 33 -342 16z"/>
<path d="M35722 5236 c-221 -42 -423 -215 -572 -488 l-40 -73 0 243 0 242
-560 0 -560 0 0 -294 0 -294 88 -4 c110 -5 159 -27 187 -83 20 -39 20 -60 20
-915 0 -855 0 -876 -20 -915 -30 -59 -69 -77 -181 -83 l-94 -5 0 -293 0 -294
680 0 680 0 0 294 0 293 -54 6 c-100 10 -133 41 -155 145 -18 85 -15 1320 3
1442 47 309 184 461 368 410 106 -30 174 -155 198 -365 13 -118 13 -1378 0
-1469 -6 -38 -16 -80 -23 -94 -18 -38 -69 -63 -137 -69 l-60 -6 0 -293 0 -294
670 0 670 0 0 295 0 295 -50 0 c-123 0 -185 34 -211 115 -9 30 -14 250 -19
895 -8 923 -9 943 -65 1168 -66 262 -204 417 -421 472 -104 27 -249 33 -342
16z"/>
<path d="M16430 4866 l0 -293 83 -5 c124 -8 165 -35 189 -123 19 -73 19 -1676
0 -1751 -23 -89 -82 -123 -214 -124 l-58 0 0 -295 0 -295 695 0 695 0 0 295 0
295 -45 0 c-74 0 -140 19 -168 48 -53 56 -51 16 -55 1325 l-3 1217 -559 0
-560 0 0 -294z"/>
<path d="M29870 4866 l0 -293 78 -5 c110 -8 148 -26 175 -85 l22 -48 0 -865 0
-865 -22 -47 c-28 -60 -62 -77 -169 -85 l-84 -6 0 -293 0 -294 695 0 695 0 0
294 0 293 -80 6 c-96 6 -137 27 -165 82 -20 39 -20 63 -23 1273 l-2 1232 -560
0 -560 0 0 -294z"/>
</g>
</svg>
